<?xml version="1.0" encoding="UTF-8"?>
<svg id="Layer_2" data-name="Layer 2" xmlns="http://www.w3.org/2000/svg" viewBox="0 0 639.43 828.99">
  <defs>
    <style>
      .cls-1 {
        fill: #8e0254;
      }
    </style>
  </defs>
  <g id="Layer_1-2" data-name="Layer 1">
    <g>
      <path class="cls-1" d="M289.32,571.91c32.45,24.53,50.97,58.33,58.24,96.85,6.99,36.99,4.36,73.75-14.21,106.9-19.61,35-58.9,58.58-99.97,52.31,30.25-3.83,55.3-15.06,72.65-39.17,40.05-55.65,31.94-130.7-8.2-184.28l-.6,26.06c-5.2,48.35-40.03,76.08-88.62,78.07-37.92,1.55-73.01-14.59-121.66-2.6-40.7,10.04-70.73,37.28-86.96,76.06,6.96-47.22,41.61-82.73,86.83-93.7,50.96-12.36,85.75,3.32,124.01.97,25.39-1.56,47.88-14.51,59.65-34.78,22.71-39.12,2-79.6-6.62-79.49l-43.64.56c-16.93.22-31.38,7.57-46.39,14.22-19.43,8.62-40.08.75-55.04-13-12.23-11.24-20.85-25.58-18.1-42.76,1.79-11.2,9.8-19.63,18.04-26.88l27-23.75c10.14-8.92,18.48-19.27,25.48-30.82-18.87-2.23-35.23-14.94-36.82-34.29,6.5,8.79,12.49,16.78,22.18,20.24-6.05-9.61-11.15-18.08-8.22-29.17,3.57,9.84,7.31,18.67,17.23,24.07-2.34-7.69-6.56-13.84-2.95-22.35,4.14,9.82,6.94,18.05,15.1,23.37,7.75-29.41,28.05-52.85,54.81-67.19,1.72-15.99,3.11-30.9,7.51-46.25,12.88-44.97,46.14-81.95,86.28-105.08l52.44-30.21c46.39-26.73,85.66-66.29,85.92-122.25.08-17.01-3.8-32.58-6.59-49.41,6.42,2.48,9.77,7.67,12.57,13.7,20.09,43.42,13.31,92.93-16.98,130.1-37.37,45.86-80.24,59.66-118.91,91.13-33.68,27.41-54.26,66.48-56.13,109.93,5.19.72,7.72-2.52,9.57-7.03,26.64-65.13,79.46-102.51,144.76-125.09l60.39-20.88c21.53-7.44,41-17.31,60.14-29.62,23.3-14.99,42.55-34.48,55.05-59.26,17.85-35.39,13.97-74.61,1.4-111.62-.77-2.26,1.02-6.4,3.07-5.36,7.14,3.61,10.69,10.99,13.73,18.14,27.64,64.82,8.77,127.55-44.94,171.95-21.02,17.38-43.47,30.98-68.65,41.58l-63.26,26.65c-53.76,22.64-95.05,54.85-115.93,111,4.78,2.3,8.7,3.47,13.32,4.23l15.33-18.37c12.19-14.6,27.95-24.91,46.73-28.75l31.3-6.4c15.57-3.18,29.7-8.04,43.56-16.8,7.17,52.62-14.64,105.49-65.41,121.14-13.36,4.12-26.43,4.99-41.13,5.88,41.49,49.67,65.63,109,71.15,173.27,3.95,46.07-5.28,92.14-26.62,132.99-11.36,21.75-25.58,41.22-45.45,55.44,64.08-88.76,70.75-187.69,26.34-286.46-13.27-29.51-31.89-54.28-54.02-78.82,7.42-4.11,16.54-5.54,25.47-7.37l33.75-6.9c32.69-6.68,56.15-45.74,57.92-79.51l-31.47,7.44c-20.22,4.78-39.49,6.56-55.68,23.98l-24.48,26.35c-8.76,9.43-22.91,9.68-36.15,7.09,5.63-3.21,11.79-2.86,17.74-8.52-20.24-7.83-39.76-14.31-61.09-14.74-36.77-.74-68.34,23.75-80.01,58.01l-12.89,30.85c-15.05,27.71-43.27,40.84-61.55,61.64-1.67,1.9-3.04,3.94-3.51,8.03l29.25-7.23c-.2,5.28-2.28,10.48-6.32,12.82l-16.65,9.64c-2.26,1.31-2.61,8.21-.65,9.73,4.93,3.81,11.25,4.49,17.25,4.83,13.9.78,25.37-5.24,38.64-11.31-8.96,14.14-22.7,20.84-39.07,23.7,10.47,5.58,21.26,4.75,31.41,0l22.58-10.57c31.95-9.75,62.41-1.36,94.09-10.4,29.88-8.53,52.04-30.78,59.74-61.22,4.53,9.56,1.45,18.52-.99,27.18-7.66,27.27-29.01,43.32-57.13,51.57Z"/>
      <path class="cls-1" d="M311.08,463.83l-21.85-3.32c-1.13,9.68-5.18,19.75-13.99,24.67-13.78,7.71-29.82,1.21-36.01-13.77l-18.18,23.53c-1.15-22.86,11.28-44.65,31.98-54.83,9.2-4.52,36.62,7.03,49.27-26.45,2.83,10.29-1.84,17.38-7.06,26.39,11.98-4.19,18.56-13.75,24.85-24.92,1.01,12.42-5.13,21.62-13,30.1,14.32-3.64,24.07-14.27,30.68-27.11.49,14.96-9.77,25.88-20.49,33.92,10.65.25,18.39-5.82,28.02-10.68-6,13.7-19.25,21.99-34.23,22.47Z"/>
      <path class="cls-1" d="M417.22,297.5c-9.74,4.83-16.44,12.25-27.08,15.83,12.66-16.17,29.49-26.55,47-35.9l63.55-27.72c22.24-9.7,43.47-19.02,64.14-31.46,12.85-7.73,23.02-16.94,35.88-26.26-23.97,40.75-76.65,64.3-119.76,80.06-21.66,7.92-42.51,15.23-63.73,25.45Z"/>
      <path class="cls-1" d="M517.59,184.73c-23.76,10.21-46,19.66-71.65,23.59,68.45-33.83,145.43-67.84,159.26-151.14,3.37,13.1,2.18,26.69-1.75,40.19-11.9,40.89-47.53,68.56-85.86,87.37Z"/>
      <path class="cls-1" d="M362.21,408.32c19.88-20,26.34-43.99,57.04-51.58l30.2-7.47c-9.41,45.35-45.49,57.09-87.24,59.05Z"/>
    </g>
  </g>
</svg>